<?xml version="1.0" encoding="UTF-8" standalone="no"?>
<!DOCTYPE svg PUBLIC "-//W3C//DTD SVG 20010904//EN"
              "http://www.w3.org/TR/2001/REC-SVG-20010904/DTD/svg10.dtd">

<svg xmlns="http://www.w3.org/2000/svg"
     width="8.64583in" height="9.8125in"
     viewBox="0 0 830 942">
  <path id="Unnamed"
        fill="none" stroke="black" stroke-width="1"
        d="M 300.67,195.33
           C 319.00,198.33 373.67,124.67 362.33,117.33
             367.67,123.00 373.00,69.67 372.00,69.33M 238.33,216.33
           C 242.91,217.00 297.79,203.06 300.67,195.67M 236.33,217.67
           C 236.33,217.67 168.00,238.67 168.00,238.67
             168.00,238.67 131.67,265.67 131.67,265.67
             131.67,265.67 117.33,282.67 117.33,282.67
             117.33,282.67 114.67,305.67 114.67,305.67
             114.67,305.67 122.00,331.33 122.00,331.33
             122.00,331.33 165.67,380.33 165.67,380.33
             165.67,380.33 237.00,423.67 237.00,423.67
             237.00,423.67 314.00,457.33 314.00,457.33
             314.00,457.33 351.33,466.33 351.33,466.33
             351.33,466.33 373.67,464.67 373.67,464.67
             373.67,464.67 394.67,454.00 394.67,454.00
             394.67,454.00 410.67,437.00 410.67,437.00
             410.67,437.00 421.67,422.00 421.67,422.00
             421.67,422.00 425.33,422.33 425.67,423.00
             426.00,423.67 433.00,427.33 433.00,427.33
             433.00,427.33 437.00,426.33 437.00,426.33
             437.00,426.33 435.33,423.00 435.67,422.67
             436.00,422.33 426.67,415.00 426.67,415.00
             426.67,415.00 437.00,398.33 437.00,398.33
             437.00,398.33 451.33,369.33 451.33,368.67
             451.33,368.00 463.33,336.67 463.33,336.67
             463.33,336.67 471.67,308.00 471.33,308.00
             471.00,308.00 468.33,276.67 468.33,276.33
             468.33,276.00 460.67,262.67 460.67,262.67
             460.67,262.67 449.33,250.33 449.33,250.33
             449.33,250.33 437.00,243.67 437.00,243.67
             437.00,243.67 428.00,239.00 428.00,239.00
             428.00,239.00 415.00,234.33 415.00,234.33
             415.00,234.33 382.33,234.00 382.33,234.00
             382.33,234.00 374.67,234.67 374.67,234.67
             374.67,234.67 365.33,237.00 362.00,239.00
             358.67,241.00 343.67,251.33 343.33,251.67
             343.00,252.00 330.00,267.33 330.00,267.33
             330.00,267.33 327.00,278.67 326.67,279.00
             326.33,279.33 325.00,283.67 323.67,292.00
             322.33,300.33 325.33,314.67 325.33,315.33
             325.33,316.00 329.33,332.00 329.67,332.33
             330.00,332.67 341.00,350.67 341.33,351.00
             341.67,351.33 359.00,371.00 359.00,371.33
             359.00,371.67 372.67,387.00 372.67,387.00
             372.67,387.00 386.33,399.67 386.67,399.67
             387.00,399.67 397.00,407.67 397.00,407.67
             397.00,407.67 406.67,413.67 406.67,413.67
             406.67,413.67 411.33,414.67 411.33,414.67
             411.33,414.67 402.67,425.33 402.67,425.33
             402.67,425.33 381.67,444.33 380.00,445.00
             378.33,445.67 367.00,453.67 367.00,453.67
             367.00,453.67 354.67,452.33 354.67,452.33
             354.67,452.33 336.00,448.00 336.00,448.00
             336.00,448.00 325.33,447.00 325.33,447.00
             325.33,447.00 310.67,441.33 310.67,441.33
             310.67,441.33 294.33,434.33 294.33,434.33
             294.33,434.33 277.67,424.33 277.67,424.33
             277.67,424.33 255.33,413.67 255.33,413.67
             255.33,413.67 242.00,407.33 242.00,407.33
             242.00,407.33 203.67,384.33 203.67,384.33
             203.67,384.33 173.33,364.00 173.33,364.00
             173.33,364.00 148.33,336.67 148.33,336.67
             148.33,336.67 133.00,307.67 133.00,306.67
             133.00,305.67 133.00,292.00 133.33,289.67
             133.67,287.33 142.33,276.33 142.33,275.67
             142.33,275.00 172.00,252.00 172.00,252.00
             172.00,252.00 207.33,235.33 207.33,235.33
             207.33,235.33 231.00,227.33 231.33,227.33
             231.67,227.33 276.67,213.67 276.67,213.67
             276.67,213.67 310.33,201.00 310.33,201.00
             310.33,201.00 327.00,187.00 327.67,186.67
             328.33,186.33 339.67,175.67 339.67,175.33
             339.67,175.00 350.33,163.33 350.67,163.33
             351.00,163.33 361.00,146.33 361.00,146.33
             361.00,146.33 370.67,118.67 370.00,118.33
             369.33,118.00 374.33,100.33 374.00,100.33
             373.67,100.33 376.67,74.33 376.67,74.00
             376.67,73.67 369.67,68.67 369.67,68.67M 394.67,69.67
           C 394.33,69.67 397.33,102.00 397.33,102.00
             397.33,102.00 405.00,123.67 406.00,124.33
             407.00,125.00 425.67,152.33 425.67,152.33
             425.67,152.33 451.67,175.00 451.67,175.00
             451.67,175.00 484.33,197.67 484.33,197.67
             484.33,197.67 549.00,225.00 551.00,225.33
             553.00,225.67 610.67,246.00 610.67,246.00
             610.67,246.00 630.00,257.67 630.00,257.67
             630.00,257.67 644.67,280.67 644.67,280.67
             644.67,280.67 645.33,305.33 645.67,305.67
             646.00,306.00 638.00,326.67 638.00,326.67
             638.00,326.67 630.00,337.67 629.33,337.67
             628.67,337.67 614.00,350.00 613.00,350.67
             612.00,351.33 593.33,365.33 593.33,365.33
             593.33,365.33 569.67,382.00 569.67,382.00
             569.67,382.00 554.33,391.00 552.67,391.00
             551.00,391.00 522.33,408.00 522.00,409.00
             521.67,410.00 495.33,428.33 495.33,428.33
             495.33,428.33 471.00,445.00 470.00,446.33
             469.00,447.67 455.33,462.67 454.33,463.00
             453.33,463.33 419.00,497.67 419.33,499.67
             419.67,501.67 396.67,539.33 398.33,541.00
             400.00,542.67 391.33,591.00 391.67,591.00
             392.00,591.00 396.33,646.67 396.33,646.67
             396.33,646.67 402.67,677.33 403.33,677.33
             404.00,677.33 408.67,714.67 408.67,714.67
             408.67,714.67 414.00,751.33 414.67,751.67
             415.33,752.00 408.00,784.00 408.00,784.00
             408.00,784.00 396.00,807.00 396.00,807.00
             396.00,807.00 387.00,818.00 387.00,818.00
             387.00,818.00 381.00,826.00 380.00,825.00
             379.00,824.00 324.00,802.00 324.00,802.00
             324.00,802.00 235.00,772.00 235.00,772.00
             235.00,772.00 177.00,744.00 174.00,744.00
             171.00,744.00 106.00,744.00 101.00,748.00
             96.00,752.00 63.00,778.00 63.00,783.00
             63.00,788.00 46.00,796.00 57.00,821.00
             68.00,846.00 62.00,870.00 74.00,876.00
             86.00,882.00 76.00,890.00 109.00,897.00
             142.00,904.00 148.00,914.00 155.00,913.00
             162.00,912.00 251.00,914.00 251.00,914.00
             251.00,914.00 299.00,905.00 301.00,904.00
             303.00,903.00 371.00,857.00 371.00,857.00
             371.00,857.00 389.00,843.00 390.00,843.00
             391.00,843.00 425.00,854.00 426.00,854.00
             427.00,854.00 387.00,886.00 387.00,886.00
             387.00,886.00 438.00,866.00 439.00,866.00
             440.00,866.00 452.00,869.00 452.00,869.00
             452.00,869.00 580.00,908.00 584.00,908.00
             588.00,908.00 654.00,917.00 663.00,916.00
             672.00,915.00 716.00,914.00 716.00,914.00
             716.00,914.00 775.00,858.00 775.00,858.00
             775.00,858.00 792.00,829.00 792.00,829.00
             792.00,829.00 771.00,787.00 771.00,784.00
             771.00,781.00 748.00,767.00 735.00,765.00
             722.00,763.00 642.00,759.00 642.00,759.00
             642.00,759.00 567.00,776.00 567.00,776.00
             567.00,776.00 533.00,788.00 532.00,789.00
             531.00,790.00 483.00,816.00 483.00,816.00
             483.00,816.00 444.00,845.00 440.00,845.00
             436.00,845.00 404.00,831.00 404.00,831.00
             404.00,831.00 426.00,788.00 426.00,788.00
             426.00,788.00 431.00,720.00 431.00,720.00
             431.00,720.00 418.00,639.00 418.00,639.00
             418.00,639.00 411.00,616.00 410.00,615.00
             409.00,614.00 415.00,545.00 418.00,542.00
             421.00,539.00 442.00,511.00 448.00,492.00
             454.00,473.00 465.00,461.00 471.00,460.00
             477.00,459.00 491.00,449.00 493.00,448.00
             495.00,447.00 535.00,422.00 536.00,419.00
             537.00,416.00 578.00,389.00 582.00,385.00
             586.00,381.00 611.00,363.00 611.00,363.00
             611.00,363.00 632.00,349.00 632.00,349.00
             632.00,349.00 653.00,325.00 653.00,323.00
             653.00,321.00 656.00,296.00 656.00,293.00
             656.00,290.00 651.00,265.00 651.00,265.00
             651.00,265.00 629.00,249.00 628.00,247.00
             627.00,245.00 585.00,228.00 585.00,228.00
             585.00,228.00 559.00,217.00 559.00,217.00
             559.00,217.00 521.00,203.00 521.00,203.00
             521.00,203.00 487.00,190.00 487.00,190.00
             487.00,190.00 466.00,175.00 466.00,175.00
             466.00,175.00 446.00,158.00 446.00,157.00
             446.00,156.00 425.00,138.00 425.00,138.00
             425.00,138.00 415.00,133.00 415.00,130.00M 403.00,73.00
           C 403.00,73.00 410.00,109.00 409.00,108.00
             408.00,107.00 414.00,114.00 414.00,114.00M 372.00,836.00
           C 372.00,836.00 255.00,799.00 255.00,799.00
             255.00,799.00 181.00,769.00 181.00,769.00
             181.00,769.00 131.00,770.00 130.00,770.00
             129.00,770.00 91.00,787.00 91.00,787.00
             91.00,787.00 76.00,807.00 74.00,806.00
             72.00,805.00 74.00,838.00 74.00,838.00
             74.00,838.00 89.00,859.00 89.00,859.00
             89.00,859.00 111.00,874.00 111.00,874.00
             111.00,874.00 150.00,896.00 152.00,896.00
             154.00,896.00 234.00,896.00 234.00,896.00
             234.00,896.00 267.00,888.00 267.00,888.00
             267.00,888.00 293.00,881.00 293.00,881.00
             293.00,881.00 315.00,872.00 315.00,872.00
             315.00,872.00 338.00,859.00 338.00,859.00
             338.00,859.00 369.00,844.00 369.00,844.00M 456.00,855.00
           C 456.00,855.00 492.00,831.00 492.00,831.00
             492.00,831.00 552.00,807.00 552.00,806.00
             552.00,805.00 602.00,798.00 606.00,793.00
             610.00,788.00 665.00,786.00 665.00,786.00
             665.00,786.00 702.00,781.00 702.00,781.00
             702.00,781.00 754.00,796.00 756.00,796.00
             758.00,796.00 771.00,833.00 771.00,833.00
             771.00,833.00 762.00,851.00 761.00,852.00
             760.00,853.00 727.00,885.00 727.00,884.00
             727.00,883.00 706.00,890.00 706.00,890.00
             706.00,890.00 672.00,898.00 672.00,897.00
             672.00,896.00 615.00,891.00 612.00,891.00
             609.00,891.00 544.00,878.00 544.00,878.00
             544.00,878.00 509.00,866.00 508.00,866.00
             507.00,866.00 463.00,858.00 463.00,858.00M 417.00,406.00
           C 417.00,406.00 428.00,388.00 428.00,388.00
             428.00,388.00 438.00,370.00 438.00,370.00
             438.00,370.00 446.00,349.00 446.00,349.00
             446.00,349.00 452.00,331.00 452.00,329.00
             452.00,327.00 455.00,306.00 455.00,305.00
             455.00,304.00 457.00,287.00 457.00,287.00
             457.00,287.00 440.00,265.00 440.00,265.00
             440.00,265.00 416.00,247.00 417.00,247.00
             418.00,247.00 382.00,248.00 382.00,248.00
             382.00,248.00 367.00,257.00 367.00,257.00
             367.00,257.00 347.00,279.00 347.00,279.00
             347.00,279.00 345.00,294.00 345.00,294.00
             345.00,294.00 343.00,317.00 343.00,317.00
             343.00,317.00 356.00,342.00 356.00,342.00
             356.00,342.00 374.00,365.00 374.00,365.00
             374.00,365.00 391.00,382.00 392.00,382.00
             393.00,382.00 404.00,394.00 404.00,394.00
             404.00,394.00 411.00,407.00 411.00,407.00" />
</svg>
