<?xml version="1.0" encoding="UTF-8" standalone="no"?>
<!DOCTYPE svg PUBLIC "-//W3C//DTD SVG 20010904//EN"
              "http://www.w3.org/TR/2001/REC-SVG-20010904/DTD/svg10.dtd">

<svg xmlns="http://www.w3.org/2000/svg"
     width="8.64583in" height="9.8125in"
     viewBox="0 0 830 942">
  <path id="Unnamed"
        fill="none" stroke="black" stroke-width="1"
        d="M 373.00,73.00
           C 381.00,75.00 355.00,172.00 337.00,173.00
             352.00,177.00 240.00,227.00 219.00,225.00
             214.08,215.53 124.23,273.75 128.00,281.00
             122.76,284.75 138.67,345.39 142.00,343.00
             130.00,358.00 350.00,482.00 364.00,459.00
             364.00,459.00 416.00,422.00 416.00,422.00
             416.00,422.00 457.00,333.00 457.00,332.00
             457.00,331.00 465.00,288.00 465.00,288.00
             465.00,288.00 444.00,251.00 436.00,248.00
             428.00,245.00 420.00,242.00 417.00,242.00
             414.00,242.00 396.00,238.00 391.00,238.00
             386.00,238.00 368.00,243.00 366.00,245.00
             364.00,247.00 352.00,254.00 351.00,256.00
             350.00,258.00 345.00,265.00 341.00,270.00
             337.00,275.00 335.00,283.00 334.00,289.00
             333.00,295.00 325.00,311.00 330.00,316.00
             335.00,321.00 342.00,334.00 347.00,341.00
             352.00,348.00 363.00,361.00 364.00,364.00
             365.00,367.00 434.00,425.00 434.00,425.00M 394.00,889.00
           C 394.00,889.00 506.00,816.00 506.00,816.00
             506.00,816.00 622.00,778.00 622.00,778.00
             622.00,778.00 698.00,770.00 698.00,770.00
             698.00,770.00 745.00,777.00 751.00,782.00
             757.00,787.00 776.00,810.00 776.00,810.00
             776.00,810.00 778.00,842.00 778.00,842.00
             778.00,842.00 769.00,861.00 769.00,861.00
             769.00,861.00 753.00,881.00 752.00,882.00
             751.00,883.00 731.00,896.00 731.00,896.00
             731.00,896.00 699.00,909.00 695.00,909.00
             691.00,909.00 639.00,906.00 639.00,906.00
             639.00,906.00 587.00,898.00 586.00,897.00
             585.00,896.00 527.00,882.00 526.00,881.00
             525.00,880.00 479.00,864.00 479.00,864.00
             479.00,864.00 389.00,838.00 389.00,836.00
             389.00,834.00 302.00,801.00 302.00,801.00
             302.00,801.00 224.00,775.00 224.00,775.00
             224.00,775.00 158.00,756.00 158.00,756.00
             158.00,756.00 111.00,764.00 111.00,764.00
             111.00,764.00 80.00,780.00 80.00,780.00
             80.00,780.00 67.00,798.00 67.00,798.00
             67.00,798.00 61.00,825.00 61.00,825.00
             61.00,825.00 72.00,849.00 72.00,849.00
             72.00,849.00 97.00,881.00 97.00,881.00
             97.00,881.00 123.00,895.00 123.00,895.00
             123.00,895.00 164.00,908.00 164.00,908.00
             164.00,908.00 199.00,909.00 199.00,909.00
             199.00,909.00 237.00,906.00 237.00,906.00
             237.00,906.00 269.00,898.00 269.00,898.00
             269.00,898.00 293.00,891.00 294.00,891.00
             295.00,891.00 345.00,867.00 345.00,867.00
             345.00,867.00 374.00,849.00 374.00,849.00
             374.00,849.00 411.00,806.00 411.00,806.00
             411.00,806.00 426.00,773.00 426.00,765.00
             426.00,757.00 424.00,708.00 423.00,706.00
             422.00,704.00 412.00,660.00 412.00,660.00
             412.00,660.00 402.00,618.00 402.00,618.00
             402.00,618.00 405.00,563.00 405.00,562.00
             405.00,561.00 418.00,516.00 418.00,516.00
             418.00,516.00 454.00,472.00 454.00,472.00
             454.00,472.00 502.00,429.00 502.00,429.00
             502.00,429.00 564.00,389.00 564.00,389.00
             564.00,389.00 617.00,354.00 617.00,354.00
             617.00,354.00 641.00,328.00 641.00,328.00
             641.00,328.00 646.00,304.00 648.00,304.00
             650.00,304.00 648.00,281.00 648.00,281.00
             648.00,281.00 634.50,259.00 635.00,259.50
             635.50,260.00 615.00,245.50 615.00,245.50
             615.00,245.50 595.50,237.50 595.50,237.50
             595.50,237.50 576.50,230.50 576.50,230.50
             576.50,230.50 546.50,221.00 546.50,221.00
             546.50,221.00 511.50,205.00 511.50,205.00
             511.50,205.00 479.50,188.50 479.50,188.50
             479.50,188.50 455.50,174.00 455.50,174.00
             455.50,174.00 435.50,155.50 435.50,155.00
             435.50,154.50 418.50,138.50 418.50,138.50
             418.50,138.50 412.00,123.50 412.00,123.50
             412.00,123.50 403.00,104.50 403.00,104.50
             403.00,104.50 398.00,95.00 398.00,95.00
             398.00,95.00 396.00,72.00 396.00,72.00" />
</svg>
