<?xml version="1.0" encoding="UTF-8" standalone="no"?>
<!-- Created with Inkscape (http://www.inkscape.org/) -->

<svg
   version="1.1"
   id="svg1"
   width="740"
   height="910"
   viewBox="0 0 740 910"
   sodipodi:docname="pilateLogo02.svg"
   inkscape:version="1.3 (0e150ed6c4, 2023-07-21)"
   xmlns:inkscape="http://www.inkscape.org/namespaces/inkscape"
   xmlns:sodipodi="http://sodipodi.sourceforge.net/DTD/sodipodi-0.dtd"
   xmlns="http://www.w3.org/2000/svg"
   xmlns:svg="http://www.w3.org/2000/svg">
  <defs
     id="defs1" />
  <sodipodi:namedview
     id="namedview1"
     pagecolor="#505050"
     bordercolor="#eeeeee"
     borderopacity="1"
     inkscape:showpageshadow="0"
     inkscape:pageopacity="0"
     inkscape:pagecheckerboard="0"
     inkscape:deskcolor="#505050"
     showgrid="false"
     showguides="true"
     inkscape:zoom="0.63795018"
     inkscape:cx="-159.10333"
     inkscape:cy="480.44504"
     inkscape:window-width="1920"
     inkscape:window-height="1017"
     inkscape:window-x="1912"
     inkscape:window-y="-8"
     inkscape:window-maximized="1"
     inkscape:current-layer="g1" />
  <g
     inkscape:groupmode="layer"
     inkscape:label="Image"
     id="g1">
    <path
       style="fill:#000000"
       d="m -627.75702,893.77558 c -3.85,-0.44918 -11.45113,-1.31707 -16.8914,-1.92864 -19.476,-2.18938 -23.05607,-2.95518 -30.1086,-6.44041 -3.85,-1.90259 -9.475,-4.20331 -12.5,-5.11271 -3.025,-0.90939 -6.625,-2.16366 -8,-2.78726 -5.73037,-2.59888 -17.445,-10.48418 -20.75927,-13.97337 -1.9591,-2.0625 -4.05725,-3.75 -4.66256,-3.75 -1.03941,0 -8.6432,-7.92118 -13.91901,-14.5 -2.27992,-2.843 -11.65916,-18.19408 -11.65916,-19.08263 0,-0.22955 -0.83644,-1.2538 -1.85875,-2.27612 -1.324,-1.324 -2.19074,-4.56052 -3.01273,-11.25 -1.09474,-8.90902 -0.91281,-12.71825 1.3686,-28.6566 0.52177,-3.64524 2.91198,-8.75142 4.57875,-9.78154 0.59955,-0.37054 2.58348,-3.00825 4.40873,-5.86158 5.88183,-9.19478 16.86532,-19.22728 25.40141,-23.20206 12.26157,-5.70953 19.03678,-8.01288 28.61399,-9.72781 11.49792,-2.05887 37.40223,-2.54445 48.5,-0.90915 7.96542,1.17375 20.25367,4.58986 22.5,6.25496 0.55,0.4077 2.35,0.98296 4,1.27838 11.90143,2.13081 32.49586,8.56069 35.41153,11.05599 1.8056,1.54529 11.03021,4.65816 13.80386,4.65816 1.01178,0 2.72723,0.61115 3.8121,1.35812 1.08488,0.74696 3.7453,1.68335 5.91205,2.08087 5.69129,1.04413 23.61565,7.03836 28.5042,9.53231 4.62685,2.36044 14.39378,5.50671 20.55327,6.62093 2.19835,0.39766 6.92335,2.2249 10.5,4.06052 3.57664,1.83562 7.30842,3.33968 8.29283,3.34237 0.98441,0.003 3.45941,0.84288 5.5,1.8671 2.04059,1.02422 6.86016,2.89772 10.71016,4.16334 3.85,1.26562 9.25,3.34823 12,4.62802 2.75,1.27978 5.89354,2.33128 6.98565,2.33665 1.0921,0.005 4.2421,1.06399 7,2.35248 2.75789,1.28849 7.03935,3.02559 9.51435,3.86022 2.475,0.83464 5.24168,1.83598 6.14817,2.22521 1.19959,0.51508 2.42432,-0.36538 4.5,-3.23506 1.56851,-2.1685 6.01456,-8.16156 9.88012,-13.31791 3.86556,-5.15634 8.68995,-12.65841 10.72087,-16.67126 3.37342,-6.66547 3.78289,-8.39415 4.73736,-20 0.57462,-6.98715 1.2886,-14.72891 1.58662,-17.20391 1.43384,-11.90805 2.0323,-23.66491 1.28099,-25.16535 -0.45864,-0.91595 -1.06356,-5.99002 -1.34427,-11.27572 -0.33621,-6.33081 -1.24577,-11.56378 -2.66537,-15.33464 -1.18525,-3.14836 -2.20824,-7.07429 -2.27332,-8.72429 -0.0651,-1.65 -0.46054,-3.54432 -0.8788,-4.2096 -0.41825,-0.66527 -0.68857,-2.69027 -0.60069,-4.5 0.0879,-1.80972 -0.57181,-4.96345 -1.46596,-7.00828 -0.89414,-2.04483 -1.62572,-4.58199 -1.62572,-5.63813 0,-1.05614 -1.18554,-5.9081 -2.63454,-10.78212 -2.6047,-8.76146 -3.3656,-13.92971 -5.35343,-36.36187 -0.56049,-6.325 -1.22849,-12.06282 -1.48444,-12.75072 -0.25596,-0.68789 -0.48853,-8.56289 -0.51683,-17.5 -0.0562,-17.74493 1.9375,-39.4862 4.33674,-47.29214 0.838,-2.72643 2.948,-10.13214 4.6889,-16.45714 3.04378,-11.0586 8.12279,-22.22768 12.07989,-26.56445 1.03604,-1.13545 1.88371,-2.34985 1.88371,-2.69867 0,-0.34882 3.4875,-5.26417 7.75,-10.923 7.39909,-9.82291 35.4427,-38.59963 44.47934,-45.64211 12.45873,-9.70941 20.34538,-15.17177 21.90525,-15.17177 0.96106,0 2.05253,-0.49375 2.42549,-1.09722 0.37297,-0.60347 3.77453,-3.10027 7.55902,-5.54845 3.7845,-2.44817 6.8809,-4.87028 6.8809,-5.38245 0,-0.51218 1.86102,-1.95288 4.1356,-3.20155 7.2575,-3.98416 8.09821,-4.54171 12.72999,-8.44231 2.50006,-2.10541 5.24056,-4.05897 6.08999,-4.34125 4.83816,-1.6078 23.00068,-12.06715 32.04442,-18.4536 5.775,-4.07815 10.88406,-7.44144 11.35346,-7.47399 0.4694,-0.0326 4.2944,-2.92075 8.5,-6.41822 4.2056,-3.49747 9.22154,-7.14792 11.14654,-8.11211 1.925,-0.96419 5.525,-3.43295 8,-5.48614 2.475,-2.05319 6.54881,-4.82255 9.05292,-6.15413 10.01144,-5.32366 23.90654,-22.58737 32.91014,-40.88858 2.7938,-5.67884 3.11313,-7.13166 2.52766,-11.5 -0.36856,-2.75 -0.82228,-6.575 -1.00826,-8.5 -0.18597,-1.925 -1.71549,-7.55 -3.39893,-12.5 -2.9518,-8.67953 -3.36672,-9.29266 -11.65262,-17.21892 -6.36274,-6.08658 -10.58165,-9.16693 -16.26137,-11.87289 -4.21825,-2.00967 -8.34454,-4.21321 -9.16954,-4.89676 -0.825,-0.68355 -2.77914,-1.54728 -4.34254,-1.9194 -1.5634,-0.37212 -5.13512,-1.78256 -7.93715,-3.13431 -2.80204,-1.35174 -6.03733,-2.45772 -7.18953,-2.45772 -1.15221,0 -4.55549,-0.69708 -7.56285,-1.54907 -3.00736,-0.85199 -7.452,-1.97677 -9.87699,-2.49951 -2.42498,-0.52274 -6.92498,-2.10992 -10,-3.52707 -3.07501,-1.41714 -8.87121,-3.65441 -12.88044,-4.97171 -4.00922,-1.3173 -11.20922,-4.29942 -16,-6.62694 -4.79077,-2.32751 -9.3855,-4.33676 -10.2105,-4.465 -3.25877,-0.50654 -10.92714,-3.58171 -19.5,-7.81987 -4.95,-2.44713 -11.14562,-5.18523 -13.76804,-6.08468 -2.62242,-0.89944 -6.89742,-3.07214 -9.5,-4.82821 -2.60258,-1.75608 -6.95645,-4.30327 -9.67528,-5.66041 -2.71882,-1.35714 -7.75161,-5.28003 -11.18397,-8.71753 -3.43236,-3.4375 -6.6631,-6.25 -7.17943,-6.25 -0.51632,0 -2.36842,-1.67371 -4.11576,-3.71935 -3.6265,-4.2456 -19.30607,-20.3364 -24.0564,-24.68733 -13.40732,-12.28005 -25.37772,-43.042103 -26.69164,-68.593319 -0.21213,-4.125 -0.78566,-11.099878 -1.27452,-15.499729 -0.48886,-4.399851 -0.71209,-8.176476 -0.49606,-8.392501 0.21602,-0.216024 1.01738,0.125606 1.78078,0.759178 1.30473,1.082831 1.93393,5.163344 3.24714,21.058739 0.29197,3.534128 0.95438,7.217045 1.47202,8.184259 0.51764,0.967214 0.94116,2.761104 0.94116,3.986421 0,1.225317 0.73438,4.7424 1.63196,7.815741 5.94973,20.372057 8.48131,26.730481 13.01233,32.682281 1.29564,1.70192 2.35571,3.54467 2.35571,4.09501 0,0.55035 0.96443,1.85787 2.14318,2.90561 1.17875,1.04775 2.94049,3.19863 3.91498,4.77975 1.92356,3.12099 14.9385,17.61985 18.87133,21.02298 1.33622,1.15624 6.00027,5.25226 10.36457,9.10226 13.55584,11.95841 14.26861,12.42848 35.70594,23.54806 10.8791,5.64301 24.66597,11.95194 26.1185,11.95194 0.81483,0 1.909,0.41054 2.4315,0.91231 0.5225,0.50177 4.55,2.10669 8.95,3.56648 4.4,1.45979 10.025,3.79008 12.5,5.17842 5.00829,2.80938 33.28369,12.44621 42.29564,14.4152 3.18761,0.69646 6.02667,1.64008 6.30902,2.09694 0.28236,0.45686 1.3234,0.83065 2.31344,0.83065 0.99003,0 4.45097,1.3443 7.69098,2.98733 3.24001,1.64304 6.56592,2.99419 7.39092,3.00257 0.825,0.008 3.975,1.50607 7,3.3282 3.025,1.82213 7.975,4.46819 11,5.88013 9.98948,4.66268 21.88679,17.81795 25.04256,27.69043 1.16233,3.63624 2.71774,7.96134 3.45646,9.61134 3.86608,8.63528 4.42102,22.92067 1.07592,27.69647 -0.86622,1.2367 -1.57494,3.21273 -1.57494,4.39118 0,1.17845 -0.84562,3.21767 -1.87916,4.5316 -1.03354,1.31393 -3.32068,5.0534 -5.08252,8.30993 -7.03702,13.00695 -30.36072,36.47889 -40.92131,41.1814 -2.96064,1.31835 -7.0488,3.85779 -9.0848,5.64321 -2.03599,1.78541 -5.01365,3.97651 -6.61701,4.86911 -5.81572,3.23762 -20.03158,12.5556 -24.9152,16.33101 -2.75,2.12596 -9.59115,6.06806 -15.20256,8.76021 -5.61141,2.69216 -11.66473,6.26071 -13.45183,7.93011 -1.7871,1.6694 -5.29595,3.97878 -7.79744,5.13195 -2.50149,1.15317 -7.16132,4.48779 -10.35517,7.41025 -3.19385,2.92246 -6.26812,5.31357 -6.8317,5.31357 -0.56359,0 -2.94679,1.575 -5.29599,3.5 -2.34921,1.925 -4.85159,3.5 -5.56084,3.5 -1.62339,0 -15.51949,10.80452 -22.82895,17.75 -3.03882,2.8875 -5.79413,5.25 -6.12292,5.25 -0.32878,0 -1.42851,1.54255 -2.44382,3.42788 -1.01532,1.88533 -4.99435,6.27283 -8.84229,9.75 -6.78368,6.13003 -20.70934,21.78021 -22.08692,24.82212 -0.37362,0.825 -2.24214,3.525 -4.15228,6 -12.00712,15.55789 -22.88917,54.99236 -22.49014,81.5 0.058,3.85 0.0661,7.9 0.018,9 -0.23547,5.38956 2.24798,30.20115 3.95365,39.5 1.05929,5.775 2.1968,12.975 2.5278,16 0.33099,3.025 1.01766,6.85 1.52593,8.5 0.50826,1.65 1.58195,7.05 2.38598,12 2.11549,13.02417 3.38356,18.59756 5.01891,22.05906 0.79487,1.68249 1.20067,3.9942 0.90178,5.13714 -0.29888,1.14295 -0.0542,2.38043 0.54369,2.74996 0.59792,0.36953 1.08712,3.31276 1.08712,6.5405 0,3.22774 0.46511,9.21264 1.03358,13.29978 2.3583,16.95558 1.24372,43.1667 -2.43905,57.35791 -0.87699,3.37939 -1.60884,7.20439 -1.62633,8.5 -0.0175,1.29561 -0.69249,3.22916 -1.5,4.29678 -0.80751,1.06762 -1.4682,2.95356 -1.4682,4.19098 0,1.23742 -0.45856,2.53326 -1.01901,2.87964 -1.309,0.809 -5.98099,10.00026 -5.98099,11.76645 0,0.73957 -0.79154,2.21703 -1.75897,3.28324 -0.96744,1.06621 -3.29545,3.96356 -5.17335,6.43856 -1.87791,2.475 -3.93683,4.95 -4.57539,5.5 -0.63855,0.55 -1.46429,2.21826 -1.83497,3.70725 -0.65065,2.61361 -0.44019,2.77918 6.08436,4.78661 3.71708,1.14365 10.13332,3.37367 14.25832,4.95559 4.125,1.58193 10.61955,4.03287 14.43232,5.44654 l 6.93232,2.5703 7.39137,-4.73314 c 4.06525,-2.60323 9.7207,-6.25482 12.56768,-8.11465 2.84697,-1.85982 7.20131,-4.513 9.67631,-5.89594 2.475,-1.38294 6.075,-3.74071 8,-5.23949 1.925,-1.49878 6.27972,-4.12304 9.67715,-5.83169 3.39744,-1.70864 6.44121,-3.53386 6.76393,-4.05605 0.32273,-0.52218 2.26801,-1.48461 4.32285,-2.13874 2.05484,-0.65412 9.12786,-3.89837 15.71782,-7.20943 13.2864,-6.67562 25.18211,-11.73848 27.5931,-11.74373 1.67428,-0.004 15.06558,-4.33985 18.42515,-5.9662 2.90036,-1.40406 13.42383,-4.71558 17.5,-5.50691 1.925,-0.37371 4.93636,-1.32962 6.69191,-2.12424 3.86619,-1.74999 10.443,-3.19284 19.80809,-4.34559 3.85,-0.4739 8.35,-1.31335 10,-1.86545 3.84139,-1.28536 15.81939,-3.97837 21,-4.72143 9.72082,-1.39426 36.44404,-2.77996 52.5,-2.72233 25.10896,0.0901 35.271816,1.32931 49.000001,5.97466 18.131703,6.13541 28.693359,14.84058 37.067356,30.55181 4.26737,8.00641 4.855237,10.52365 5.565875,23.83309 0.509608,9.54436 0.308851,12.57 -1.127986,17 -3.345106,10.31352 -9.405245,21.41869 -14.281685,26.17111 -2.597958,2.53189 -8.32356,8.1372 -12.72356,12.45624 -6.506608,6.38689 -10.44797,9.17699 -21.113607,14.94637 -7.212484,3.90146 -14.908328,7.39677 -17.101875,7.76737 -2.193547,0.3706 -7.542419,1.80669 -11.886389,3.19132 -6.34841,2.02353 -10.64512,2.61408 -21.89813,3.00972 -21.6427,0.76092 -69.29342,-2.06341 -86,-5.09735 -8.50828,-1.54512 -18.50013,-3.04872 -27.5,-4.13828 -3.025,-0.36622 -6.625,-1.09592 -8,-1.62157 -1.375,-0.52565 -6.20864,-1.55998 -10.74142,-2.29851 -4.53278,-0.73854 -10.77466,-2.50255 -13.87084,-3.92002 -3.09619,-1.41748 -6.70615,-2.57724 -8.02215,-2.57724 -1.316,0 -3.28662,-0.45 -4.37916,-1 -1.09254,-0.55 -2.85015,-1.43115 -3.90581,-1.95812 -1.05566,-0.52697 -5.62914,-1.90532 -10.16329,-3.06299 -4.53416,-1.15767 -9.86162,-2.93014 -11.8388,-3.93883 -1.97719,-1.00868 -9.67213,-3.40555 -17.09988,-5.32638 -7.42775,-1.92083 -16.54072,-4.92672 -20.25106,-6.67977 -11.08214,-5.23606 -23.77006,-6.01131 -29.39926,-1.79634 -2.24806,1.68327 -17.48807,8.76243 -18.86376,8.76243 -0.76266,0 -2.19169,0.82008 -3.17561,1.82239 -4.29927,4.37963 -13.66583,8.99488 -14.7371,7.26152 -0.5216,-0.84396 0.0473,-1.45541 7.94814,-8.54234 2.75,-2.46671 5.46211,-4.49768 6.02691,-4.51325 0.5648,-0.0156 3.38566,-1.80065 6.26857,-3.96683 2.88291,-2.16617 6.2458,-4.25308 7.47309,-4.63756 2.7582,-0.86407 7.35087,-4.36998 6.89639,-5.2645 -0.93783,-1.84587 -2.74361,-3.32931 -5.55272,-4.56152 -1.71173,-0.75086 -5.36224,-2.37294 -8.11224,-3.60463 -4.85068,-2.17256 -19.1668,-6.99328 -20.76799,-6.99328 -0.43573,0 -3.66803,2.3625 -7.1829,5.25 -3.51487,2.8875 -9.64283,7.725 -13.61769,10.75 -3.97486,3.025 -8.62301,6.80385 -10.32922,8.39744 -3.46221,3.23368 -23.30865,14.58482 -25.51915,14.59563 -0.77933,0.004 -4.15433,1.49684 -7.5,3.31785 -10.1275,5.51226 -18.05595,8.43861 -35.58305,13.13353 -3.575,0.95763 -7.97777,2.37438 -9.78393,3.14834 -1.80616,0.77397 -4.00275,1.40721 -4.88131,1.40721 -0.87856,0 -5.47579,1.29805 -10.21607,2.88455 -8.5104,2.84831 -12.55913,3.62265 -35.11869,6.7166 -13.34194,1.82979 -40.36124,2.57415 -50.5,1.39124 z m 36,-13.52724 c 5.5,-0.84772 14.05,-2.17107 19,-2.94078 10.60588,-1.64918 23.42597,-4.85482 32.5,-8.12656 3.575,-1.28901 11.9,-3.95315 18.5,-5.92031 6.6,-1.96717 14.25,-4.39064 17,-5.3855 2.75,-0.99485 9.5,-3.26308 15,-5.0405 11.04938,-3.5708 20.13857,-7.84118 25.49249,-11.97714 1.92913,-1.49028 6.72563,-4.82173 10.6589,-7.40321 8.07477,-5.29967 18.96227,-15.52139 17.68877,-16.60711 -0.46209,-0.39395 -2.86516,-1.32558 -5.34016,-2.07029 -2.475,-0.7447 -5.0196,-1.74244 -5.65466,-2.21719 -0.63506,-0.47476 -4.03514,-1.68694 -7.55573,-2.69374 -3.5206,-1.0068 -7.726,-2.51447 -9.34534,-3.35039 -1.61935,-0.83591 -6.43396,-2.69023 -10.69914,-4.1207 -4.26518,-1.43048 -8.54018,-3.0293 -9.5,-3.55294 -0.95982,-0.52365 -4.22013,-1.70183 -7.24513,-2.6182 -3.025,-0.91636 -7.38013,-2.74037 -9.67807,-4.05335 -2.29794,-1.31298 -5.03114,-2.38724 -6.07377,-2.38724 -3.13333,0 -17.39023,-4.60373 -22.89339,-7.39256 -2.82987,-1.43409 -5.77067,-2.60744 -6.53511,-2.60744 -0.76444,0 -4.74909,-1.13663 -8.85477,-2.52584 -4.10569,-1.38922 -11.28989,-3.65117 -15.96489,-5.02656 -4.675,-1.3754 -9.85,-3.13042 -11.5,-3.90006 -7.72695,-3.60423 -12.07525,-5.29401 -26.5,-10.29814 -8.525,-2.95743 -18.01598,-5.78234 -21.09106,-6.27759 -3.07509,-0.49525 -6.90009,-1.40792 -8.5,-2.02814 -10.43347,-4.04467 -40.231,-4.53757 -57.90894,-0.95791 -5.25713,1.06453 -13.44383,3.80239 -19.6855,6.58337 -9.10896,4.05851 -11.8644,5.88003 -18.67586,12.34591 -9.16225,8.69739 -11.37112,13.01963 -13.07514,25.58496 -2.21719,16.34937 1.6535,30.78949 11.36909,42.41388 2.23707,2.67659 5.25213,6.40074 6.70012,8.2759 6.07967,7.87321 32.23455,22.77515 47.83132,27.25226 5.20522,1.49418 10.33114,3.18075 11.39094,3.74793 1.76357,0.94384 18.40545,3.83303 33.14503,5.7543 10.23723,1.3344 25.55673,1.13051 36,-0.47912 z m 481,-4.86943 c 4.4,-1.41114 8.83504,-2.57246 9.85565,-2.58071 1.020599,-0.008 3.192626,-1.14001 4.82672,-2.51501 1.634095,-1.375 3.530283,-2.5 4.21375,-2.5 0.683468,0 3.655215,-1.8 6.603881,-4 2.948666,-2.2 5.885583,-4 6.526481,-4 0.640898,0 4.342716,-2.6679 8.226263,-5.92866 3.883546,-3.26077 8.994835,-7.14945 11.358421,-8.64151 5.539375,-3.49686 7.188744,-5.4719 11.433524,-13.69114 6.211136,-12.02671 7.642171,-17.02137 7.752764,-27.059 0.178055,-16.1605 -4.446791,-24.01887 -19.69924,-33.47224 -11.217535,-6.95255 -23.626197,-10.69748 -40.098213,-12.10163 -7.700001,-0.65638 -15.575001,-1.39829 -17.500001,-1.64869 -3.53531,-0.45986 -23.55692,0.70132 -45.36707,2.63114 -10.5781,0.93597 -17.35405,2.1327 -32.63293,5.76345 -2.475,0.58814 -9,1.93171 -14.5,2.98573 -5.5,1.05401 -11.8007,2.60603 -14.00155,3.44895 -2.20085,0.84291 -6.92585,2.07386 -10.5,2.73544 -3.57415,0.66158 -7.6745,1.81646 -9.11189,2.56639 -2.64624,1.38062 -16.23436,5.79481 -20.95966,6.80888 -1.41521,0.30371 -4.11521,1.59743 -6,2.87493 -5.06692,3.43433 -13.58526,7.76609 -30.9269,15.727 -22.68655,10.41456 -24.97865,11.60604 -30.74403,15.98146 -2.88422,2.18887 -7.58681,5.16693 -10.45019,6.61792 -2.86338,1.45098 -6.96785,3.80399 -9.12104,5.22891 -3.85898,2.55375 -3.88111,2.60372 -1.54982,3.49887 1.3008,0.49947 4.61508,1.97139 7.36508,3.27095 6.74613,3.18799 16.02415,6.37006 21.51341,7.37842 2.48237,0.45601 6.73639,2.01108 9.45338,3.45571 2.71698,1.44464 5.50904,2.40824 6.20456,2.14134 0.69553,-0.2669 1.53057,-0.0549 1.85564,0.47106 0.32508,0.52597 2.03936,0.95632 3.80952,0.95632 1.77016,0 4.10611,0.61706 5.19098,1.37125 1.86375,1.29564 12.2422,4.03273 24.47251,6.45408 8.60528,1.70367 21.41782,4.7003 34.5,8.06896 6.6,1.6995 13.61598,3.09353 15.59107,3.09786 1.97509,0.004 5.80009,0.67727 8.5,1.49545 2.69991,0.81819 9.85893,1.96279 15.90893,2.54357 6.05,0.58078 13.925,1.45298 17.5,1.93822 3.575,0.48524 9.65,0.66622 13.5,0.40218 3.85,-0.26404 9.025,-0.0251 11.5,0.53102 2.475,0.55609 11.925,0.84183 21,0.63496 14.32399,-0.32652 17.55504,-0.71449 24.5,-2.94183 z m -359,-430.63658 c -2.75,-0.4661 -6.575,-1.1373 -8.5,-1.49155 -5.32846,-0.9806 -19.72791,-6.43585 -26.9121,-10.19569 -3.52666,-1.84567 -8.70166,-4.33448 -11.5,-5.53068 -2.79834,-1.19621 -6.6132,-3.20234 -8.47745,-4.45807 -1.86425,-1.25573 -4.63422,-2.28315 -6.1555,-2.28315 -1.52127,0 -4.49597,-0.8671 -6.61045,-1.92688 -2.11447,-1.05979 -16.2195,-8.04814 -31.3445,-15.52968 -15.125,-7.48153 -31.1,-16.07579 -35.5,-19.09835 -17.97354,-12.34683 -22.04342,-15.04622 -25.93039,-17.1986 -2.23829,-1.23942 -5.86961,-3.74852 -8.06961,-5.57577 -2.2,-1.82725 -5.35,-4.16467 -7,-5.19427 -6.13139,-3.82598 -15.51782,-12.73506 -20.80454,-19.74653 -2.99829,-3.97645 -7.97478,-10.05207 -11.05886,-13.50137 -3.08408,-3.4493 -6.29412,-7.59938 -7.13342,-9.22241 -0.8393,-1.62302 -2.58451,-4.51075 -3.87825,-6.41718 -1.87781,-2.76711 -2.55382,-5.64682 -3.35166,-14.27759 -2.17639,-23.54336 -1.32366,-28.19334 6.80028,-37.08222 2.82515,-3.09117 5.86525,-6.76979 6.75577,-8.17473 1.86145,-2.93673 5.10004,-6.05442 6.28921,-6.05442 0.44688,0 2.11876,-1.2375 3.71528,-2.75 7.04405,-6.67335 10.44122,-9.02233 19.89622,-13.75723 2.87651,-1.44051 5.51358,-3.07793 5.86016,-3.6387 2.52825,-4.09079 40.44665,-15.54184 60.68942,-18.32771 2.62879,-0.36178 8.47879,-1.92828 13,-3.4811 4.52122,-1.55283 9.79539,-3.12182 11.72039,-3.48666 5.59177,-1.05978 28.37068,-8.93261 29.82143,-10.30686 0.72679,-0.68845 1.85179,-1.25505 2.5,-1.2591 1.08467,-0.007 4.62759,-1.77671 21.47689,-10.72922 3.35032,-1.78012 8.02878,-4.60736 10.39659,-6.28276 2.3678,-1.67539 5.43009,-3.79271 6.80509,-4.70514 3.7453,-2.48533 15,-14.10523 15,-15.48674 0,-0.66245 1.55306,-2.79843 3.45125,-4.74662 3.00528,-3.08445 5.07063,-6.33462 9.26518,-14.58031 0.5489,-1.07901 1.72219,-3.35579 2.60733,-5.05951 3.24846,-6.25266 9.7712,-26.223934 13.35895,-40.902339 1.37175,-5.612188 3.00501,-18.160878 3.70938,-28.5 0.42454,-6.231703 0.68538,-6.880599 1.60791,-4 1.20347,3.757849 1.18164,24.769709 -0.0265,25.516391 -0.56459,0.348933 -0.93143,1.162991 -0.81522,1.809017 0.63915,3.553004 -3.29884,20.980369 -7.27038,32.174591 -0.58539,1.65 -1.4828,4.71371 -1.99424,6.80825 -1.22081,4.99967 -8.00708,18.42694 -12.62806,24.9858 -9.5555,13.56274 -19.04804,23.43907 -28.26558,29.40835 -3.025,1.959 -6.625,4.56271 -8,5.78604 -2.80739,2.49772 -21.2881,12.51156 -23.09028,12.51156 -0.64017,0 -4.36925,1.54174 -8.28683,3.4261 -3.91759,1.88435 -8.88664,4.14325 -11.04234,5.01977 -4.93913,2.00829 -38.07712,10.25588 -46.08055,11.46882 -8.20494,1.24347 -29.28064,8.84044 -39,14.05798 -4.4,2.362 -11.34444,6.04665 -15.4321,8.18811 -4.08766,2.14145 -9.71266,6.03526 -12.5,8.65291 -2.78734,2.61765 -6.80183,6.06925 -8.92108,7.67022 -2.11925,1.60098 -6.65571,6.12424 -10.08102,10.05168 -5.93826,6.80877 -6.30791,7.544 -7.94994,15.81214 -0.94716,4.76923 -1.41558,9.16732 -1.04092,9.77352 0.37465,0.6062 1.01794,4.16994 1.42953,7.91943 0.87725,7.99161 3.75867,14.52082 9.47024,21.45932 2.26372,2.75 5.35625,6.93802 6.87229,9.30671 3.16152,4.93963 10.37923,12.30915 15.18714,15.5066 1.80844,1.20268 5.69057,4.26205 8.62697,6.79861 6.71748,5.80278 19.83319,14.80154 27.48306,18.85626 7.07255,3.74871 10.40189,5.76607 20.96725,12.70474 4.46128,2.9299 8.44181,5.32708 8.84563,5.32708 0.40381,0 2.07166,0.95235 3.70633,2.11634 2.73756,1.94931 7.41825,4.09288 26.25233,12.02251 3.80365,1.60143 9.53606,4.70032 12.7387,6.88642 3.20263,2.1861 6.30642,3.97473 6.89729,3.97473 0.59088,0 4.07651,1.44793 7.74585,3.21762 3.66934,1.76969 9.37848,4.18873 12.68699,5.37564 6.79107,2.43626 17.01938,6.64376 23.08119,9.49463 2.23614,1.05166 5.03581,1.91211 6.22148,1.91211 1.18567,0 4.69959,1.125 7.80871,2.5 3.10912,1.375 6.6856,2.5 7.94774,2.5 1.26215,0 5.13674,0.72807 8.61021,1.61793 6.21544,1.59232 17.4907,1.36857 18.79017,-0.37288 0.70402,-0.94347 4.09291,-3.08312 6.05596,-3.82356 0.825,-0.31119 2.175,-0.9844 3,-1.49603 0.825,-0.51163 2.4,-1.33845 3.5,-1.83738 1.89209,-0.8582 8.06359,-7.34473 14.35528,-15.08808 1.56412,-1.925 3.14305,-4.72925 3.50874,-6.23166 0.36568,-1.50241 2.00838,-4.26182 3.65043,-6.13201 1.64205,-1.8702 2.98555,-3.84873 2.98555,-4.39673 0,-1.21068 -8.32717,-7.61981 -16.5,-12.69947 -3.3,-2.05105 -9.825,-7.45446 -14.5,-12.00758 -4.675,-4.55311 -10.1183,-9.34808 -12.09622,-10.65547 -3.65169,-2.41375 -10.69853,-10.02011 -13.68146,-14.76778 -0.90168,-1.43512 -4.73946,-6.09261 -8.52841,-10.34998 -6.81561,-7.65822 -7.79103,-9.50729 -14.36235,-27.22626 -1.82233,-4.91373 -3.62744,-25.61924 -2.70547,-31.03306 0.37465,-2.2 0.7976,-5.575 0.93987,-7.5 0.38975,-5.27343 2.01251,-11.78716 3.33288,-13.37811 0.64574,-0.77807 1.94567,-3.00099 2.88873,-4.93982 0.94307,-1.93883 5.88497,-8.22777 10.982,-13.97542 10.10648,-11.39652 15.29879,-14.77167 28.23043,-18.35059 8.09988,-2.2417 33.49329,-2.49681 42,-0.42195 6.14683,1.49926 14.73652,5.58464 19.94428,9.48578 1.89435,1.41906 3.94182,2.58011 4.54992,2.58011 1.56869,0 13.19398,8.47751 18.34123,13.37497 2.38448,2.26877 5.67545,6.75609 7.31325,9.97182 2.68717,5.2761 3.06495,7.22826 3.87035,20 0.54414,8.62877 0.52876,15.71454 -0.0394,18.15321 -0.51255,2.2 -0.94265,5.50514 -0.95577,7.34476 -0.0341,4.77615 -9.12755,35.18934 -11.36375,38.00612 -0.58985,0.74299 -1.17065,2.01996 -1.29067,2.83771 -0.12002,0.81776 -0.86503,2.23486 -1.65557,3.14912 -0.79054,0.91426 -3.14857,5.21454 -5.24006,9.55617 -2.09148,4.34163 -5.3037,10.12435 -7.13826,12.85049 -1.83455,2.72613 -3.33555,5.21346 -3.33555,5.52738 0,0.31392 -0.6307,1.2812 -1.40156,2.14951 -1.14499,1.28972 -12.59844,22.7843 -12.59844,23.64335 0,0.13906 2.925,2.5515 6.5,5.36098 6.02171,4.73228 7.69554,7.21749 5.69417,8.45441 -0.9422,0.58231 -3.26531,-0.65187 -9.65623,-5.13 -2.55101,-1.7875 -4.95314,-3.24361 -5.33807,-3.2358 -0.38493,0.008 -2.39141,2.1453 -4.45885,4.75 -10.78416,13.58656 -14.63009,18.1354 -18.7998,22.2358 -10.97198,10.78961 -18.59554,15.31129 -28.94122,17.1656 -7.7293,1.38537 -22.57017,1.79859 -28.5,0.79354 z m 77.27397,-62.22594 c 1.74147,-1.79673 5.71486,-8.20923 8.82977,-14.25 3.1149,-6.04076 6.44545,-12.1082 7.40122,-13.4832 3.47253,-4.9957 10.64443,-22.28262 12.86109,-31 6.30521,-24.79623 7.13395,-30.07363 7.13395,-45.42906 0,-11.20734 -0.41383,-16.42919 -1.5712,-19.82588 -2.03299,-5.9665 -12.10071,-17.01168 -18.27315,-20.04726 -2.56061,-1.2593 -6.91052,-3.49735 -9.66647,-4.97345 -7.78341,-4.16884 -19.35139,-6.72435 -30.43904,-6.72435 -16.10985,0 -27.97383,4.44587 -38.36902,14.37827 -5.18728,4.95635 -6.82097,7.84647 -13.32727,23.57702 -3.66967,8.87234 -1.24839,32.94268 4.41188,43.85908 4.13509,7.97494 7.69978,13.8622 10.70852,17.68563 1.73122,2.2 3.741,5.47134 4.46618,7.26965 0.76972,1.90878 6.75402,8.36009 14.37797,15.5 15.93998,14.92798 29.12264,27.96441 33.35028,32.98035 1.73836,2.0625 3.56078,3.75 4.04982,3.75 0.48904,0 2.314,-1.47006 4.05547,-3.2668 z"
       id="path3" />
    <path
       style="fill:#000000"
       d="m -627.75702,893.77558 c -3.85,-0.44918 -11.45113,-1.31707 -16.8914,-1.92864 -19.476,-2.18938 -23.05607,-2.95518 -30.1086,-6.44041 -3.85,-1.90259 -9.475,-4.20331 -12.5,-5.11271 -3.025,-0.90939 -6.625,-2.16366 -8,-2.78726 -5.73037,-2.59888 -17.445,-10.48418 -20.75927,-13.97337 -1.9591,-2.0625 -4.05725,-3.75 -4.66256,-3.75 -1.03941,0 -8.6432,-7.92118 -13.91901,-14.5 -2.27992,-2.843 -11.65916,-18.19408 -11.65916,-19.08263 0,-0.22955 -0.83644,-1.2538 -1.85875,-2.27612 -1.324,-1.324 -2.19074,-4.56052 -3.01273,-11.25 -1.09474,-8.90902 -0.91281,-12.71825 1.3686,-28.6566 0.52177,-3.64524 2.91198,-8.75142 4.57875,-9.78154 0.59955,-0.37054 2.58348,-3.00825 4.40873,-5.86158 5.88183,-9.19478 16.86532,-19.22728 25.40141,-23.20206 12.26157,-5.70953 19.03678,-8.01288 28.61399,-9.72781 11.49792,-2.05887 37.40223,-2.54445 48.5,-0.90915 7.96542,1.17375 20.25367,4.58986 22.5,6.25496 0.55,0.4077 2.35,0.98296 4,1.27838 11.90143,2.13081 32.49586,8.56069 35.41153,11.05599 1.8056,1.54529 11.03021,4.65816 13.80386,4.65816 1.01178,0 2.72723,0.61115 3.8121,1.35812 1.08488,0.74696 3.7453,1.68335 5.91205,2.08087 5.69129,1.04413 23.61565,7.03836 28.5042,9.53231 4.62685,2.36044 14.39378,5.50671 20.55327,6.62093 2.19835,0.39766 6.92335,2.2249 10.5,4.06052 3.57664,1.83562 7.30842,3.33968 8.29283,3.34237 0.98441,0.003 3.45941,0.84288 5.5,1.8671 2.04059,1.02422 6.86016,2.89772 10.71016,4.16334 3.85,1.26562 9.25,3.34823 12,4.62802 2.75,1.27978 5.89354,2.33128 6.98565,2.33665 1.0921,0.005 4.2421,1.06399 7,2.35248 2.75789,1.28849 7.03935,3.02559 9.51435,3.86022 2.475,0.83464 5.24168,1.83598 6.14817,2.22521 1.19959,0.51508 2.42432,-0.36538 4.5,-3.23506 1.56851,-2.1685 6.01456,-8.16156 9.88012,-13.31791 3.86556,-5.15634 8.68995,-12.65841 10.72087,-16.67126 3.37342,-6.66547 3.78289,-8.39415 4.73736,-20 0.57462,-6.98715 1.2886,-14.72891 1.58662,-17.20391 1.43384,-11.90805 2.0323,-23.66491 1.28099,-25.16535 -0.45864,-0.91595 -1.06356,-5.99002 -1.34427,-11.27572 -0.33621,-6.33081 -1.24577,-11.56378 -2.66537,-15.33464 -1.18525,-3.14836 -2.20824,-7.07429 -2.27332,-8.72429 -0.0651,-1.65 -0.46054,-3.54432 -0.8788,-4.2096 -0.41825,-0.66527 -0.68857,-2.69027 -0.60069,-4.5 0.0879,-1.80972 -0.57181,-4.96345 -1.46596,-7.00828 -0.89414,-2.04483 -1.62572,-4.58199 -1.62572,-5.63813 0,-1.05614 -1.18554,-5.9081 -2.63454,-10.78212 -2.6047,-8.76146 -3.3656,-13.92971 -5.35343,-36.36187 -0.56049,-6.325 -1.22849,-12.06282 -1.48444,-12.75072 -0.25596,-0.68789 -0.48853,-8.56289 -0.51683,-17.5 -0.0562,-17.74493 1.9375,-39.4862 4.33674,-47.29214 0.838,-2.72643 2.948,-10.13214 4.6889,-16.45714 3.04378,-11.0586 8.12279,-22.22768 12.07989,-26.56445 1.03604,-1.13545 1.88371,-2.34985 1.88371,-2.69867 0,-0.34882 3.4875,-5.26417 7.75,-10.923 7.39909,-9.82291 35.4427,-38.59963 44.47934,-45.64211 12.45873,-9.70941 20.34538,-15.17177 21.90525,-15.17177 0.96106,0 2.05253,-0.49375 2.42549,-1.09722 0.37297,-0.60347 3.77453,-3.10027 7.55902,-5.54845 3.7845,-2.44817 6.8809,-4.87028 6.8809,-5.38245 0,-0.51218 1.86102,-1.95288 4.1356,-3.20155 7.2575,-3.98416 8.09821,-4.54171 12.72999,-8.44231 2.50006,-2.10541 5.24056,-4.05897 6.08999,-4.34125 4.83816,-1.6078 23.00068,-12.06715 32.04442,-18.4536 5.775,-4.07815 10.88406,-7.44144 11.35346,-7.47399 0.4694,-0.0326 4.2944,-2.92075 8.5,-6.41822 4.2056,-3.49747 9.22154,-7.14792 11.14654,-8.11211 1.925,-0.96419 5.525,-3.43295 8,-5.48614 2.475,-2.05319 6.54881,-4.82255 9.05292,-6.15413 10.01144,-5.32366 23.90654,-22.58737 32.91014,-40.88858 2.7938,-5.67884 3.11313,-7.13166 2.52766,-11.5 -0.36856,-2.75 -0.82228,-6.575 -1.00826,-8.5 -0.18597,-1.925 -1.71549,-7.55 -3.39893,-12.5 -2.9518,-8.67953 -3.36672,-9.29266 -11.65262,-17.21892 -6.36274,-6.08658 -10.58165,-9.16693 -16.26137,-11.87289 -4.21825,-2.00967 -8.34454,-4.21321 -9.16954,-4.89676 -0.825,-0.68355 -2.77914,-1.54728 -4.34254,-1.9194 -1.5634,-0.37212 -5.13512,-1.78256 -7.93715,-3.13431 -2.80204,-1.35174 -6.03733,-2.45772 -7.18953,-2.45772 -1.15221,0 -4.55549,-0.69708 -7.56285,-1.54907 -3.00736,-0.85199 -7.452,-1.97677 -9.87699,-2.49951 -2.42498,-0.52274 -6.92498,-2.10992 -10,-3.52707 -3.07501,-1.41714 -8.87121,-3.65441 -12.88044,-4.97171 -4.00922,-1.3173 -11.20922,-4.29942 -16,-6.62694 -4.79077,-2.32751 -9.3855,-4.33676 -10.2105,-4.465 -3.25877,-0.50654 -10.92714,-3.58171 -19.5,-7.81987 -4.95,-2.44713 -11.14562,-5.18523 -13.76804,-6.08468 -2.62242,-0.89944 -6.89742,-3.07214 -9.5,-4.82821 -2.60258,-1.75608 -6.95645,-4.30327 -9.67528,-5.66041 -2.71882,-1.35714 -7.75161,-5.28003 -11.18397,-8.71753 -3.43236,-3.4375 -6.6631,-6.25 -7.17943,-6.25 -0.51632,0 -2.36842,-1.67371 -4.11576,-3.71935 -3.6265,-4.2456 -19.30607,-20.3364 -24.0564,-24.68733 -13.40732,-12.28005 -25.37772,-43.042103 -26.69164,-68.593319 -0.21213,-4.125 -0.78566,-11.099878 -1.27452,-15.499729 -0.48886,-4.399851 -0.71209,-8.176476 -0.49606,-8.392501 0.21602,-0.216024 1.01738,0.125606 1.78078,0.759178 1.30473,1.082831 1.93393,5.163344 3.24714,21.058739 0.29197,3.534128 0.95438,7.217045 1.47202,8.184259 0.51764,0.967214 0.94116,2.761104 0.94116,3.986421 0,1.225317 0.73438,4.7424 1.63196,7.815741 5.94973,20.372057 8.48131,26.730481 13.01233,32.682281 1.29564,1.70192 2.35571,3.54467 2.35571,4.09501 0,0.55035 0.96443,1.85787 2.14318,2.90561 1.17875,1.04775 2.94049,3.19863 3.91498,4.77975 1.92356,3.12099 14.9385,17.61985 18.87133,21.02298 1.33622,1.15624 6.00027,5.25226 10.36457,9.10226 13.55584,11.95841 14.26861,12.42848 35.70594,23.54806 10.8791,5.64301 24.66597,11.95194 26.1185,11.95194 0.81483,0 1.909,0.41054 2.4315,0.91231 0.5225,0.50177 4.55,2.10669 8.95,3.56648 4.4,1.45979 10.025,3.79008 12.5,5.17842 5.00829,2.80938 33.28369,12.44621 42.29564,14.4152 3.18761,0.69646 6.02667,1.64008 6.30902,2.09694 0.28236,0.45686 1.3234,0.83065 2.31344,0.83065 0.99003,0 4.45097,1.3443 7.69098,2.98733 3.24001,1.64304 6.56592,2.99419 7.39092,3.00257 0.825,0.008 3.975,1.50607 7,3.3282 3.025,1.82213 7.975,4.46819 11,5.88013 9.98948,4.66268 21.88679,17.81795 25.04256,27.69043 1.16233,3.63624 2.71774,7.96134 3.45646,9.61134 3.86608,8.63528 4.42102,22.92067 1.07592,27.69647 -0.86622,1.2367 -1.57494,3.21273 -1.57494,4.39118 0,1.17845 -0.84562,3.21767 -1.87916,4.5316 -1.03354,1.31393 -3.32068,5.0534 -5.08252,8.30993 -7.03702,13.00695 -30.36072,36.47889 -40.92131,41.1814 -2.96064,1.31835 -7.0488,3.85779 -9.0848,5.64321 -2.03599,1.78541 -5.01365,3.97651 -6.61701,4.86911 -5.81572,3.23762 -20.03158,12.5556 -24.9152,16.33101 -2.75,2.12596 -9.59115,6.06806 -15.20256,8.76021 -5.61141,2.69216 -11.66473,6.26071 -13.45183,7.93011 -1.7871,1.6694 -5.29595,3.97878 -7.79744,5.13195 -2.50149,1.15317 -7.16132,4.48779 -10.35517,7.41025 -3.19385,2.92246 -6.26812,5.31357 -6.8317,5.31357 -0.56359,0 -2.94679,1.575 -5.29599,3.5 -2.34921,1.925 -4.85159,3.5 -5.56084,3.5 -1.62339,0 -15.51949,10.80452 -22.82895,17.75 -3.03882,2.8875 -5.79413,5.25 -6.12292,5.25 -0.32878,0 -1.42851,1.54255 -2.44382,3.42788 -1.01532,1.88533 -4.99435,6.27283 -8.84229,9.75 -6.78368,6.13003 -20.70934,21.78021 -22.08692,24.82212 -0.37362,0.825 -2.24214,3.525 -4.15228,6 -12.00712,15.55789 -22.88917,54.99236 -22.49014,81.5 0.058,3.85 0.0661,7.9 0.018,9 -0.23547,5.38956 2.24798,30.20115 3.95365,39.5 1.05929,5.775 2.1968,12.975 2.5278,16 0.33099,3.025 1.01766,6.85 1.52593,8.5 0.50826,1.65 1.58195,7.05 2.38598,12 2.11549,13.02417 3.38356,18.59756 5.01891,22.05906 0.79487,1.68249 1.20067,3.9942 0.90178,5.13714 -0.29888,1.14295 -0.0542,2.38043 0.54369,2.74996 0.59792,0.36953 1.08712,3.31276 1.08712,6.5405 0,3.22774 0.46511,9.21264 1.03358,13.29978 2.3583,16.95558 1.24372,43.1667 -2.43905,57.35791 -0.87699,3.37939 -1.60884,7.20439 -1.62633,8.5 -0.0175,1.29561 -0.69249,3.22916 -1.5,4.29678 -0.80751,1.06762 -1.4682,2.95356 -1.4682,4.19098 0,1.23742 -0.45856,2.53326 -1.01901,2.87964 -1.309,0.809 -5.98099,10.00026 -5.98099,11.76645 0,0.73957 -0.79154,2.21703 -1.75897,3.28324 -0.96744,1.06621 -3.29545,3.96356 -5.17335,6.43856 -1.87791,2.475 -3.93683,4.95 -4.57539,5.5 -0.63855,0.55 -1.46429,2.21826 -1.83497,3.70725 -0.65065,2.61361 -0.44019,2.77918 6.08436,4.78661 3.71708,1.14365 10.13332,3.37367 14.25832,4.95559 4.125,1.58193 10.61955,4.03287 14.43232,5.44654 l 6.93232,2.5703 7.39137,-4.73314 c 4.06525,-2.60323 9.7207,-6.25482 12.56768,-8.11465 2.84697,-1.85982 7.20131,-4.513 9.67631,-5.89594 2.475,-1.38294 6.075,-3.74071 8,-5.23949 1.925,-1.49878 6.27972,-4.12304 9.67715,-5.83169 3.39744,-1.70864 6.44121,-3.53386 6.76393,-4.05605 0.32273,-0.52218 2.26801,-1.48461 4.32285,-2.13874 2.05484,-0.65412 9.12786,-3.89837 15.71782,-7.20943 13.2864,-6.67562 25.18211,-11.73848 27.5931,-11.74373 1.67428,-0.004 15.06558,-4.33985 18.42515,-5.9662 2.90036,-1.40406 13.42383,-4.71558 17.5,-5.50691 1.925,-0.37371 4.93636,-1.32962 6.69191,-2.12424 3.86619,-1.74999 10.443,-3.19284 19.80809,-4.34559 3.85,-0.4739 8.35,-1.31335 10,-1.86545 3.84139,-1.28536 15.81939,-3.97837 21,-4.72143 9.72082,-1.39426 36.44404,-2.77996 52.5,-2.72233 25.10896,0.0901 35.271816,1.32931 49.000001,5.97466 18.131703,6.13541 28.693359,14.84058 37.067356,30.55181 4.26737,8.00641 4.855237,10.52365 5.565875,23.83309 0.509608,9.54436 0.308851,12.57 -1.127986,17 -3.345106,10.31352 -9.405245,21.41869 -14.281685,26.17111 -2.597958,2.53189 -8.32356,8.1372 -12.72356,12.45624 -6.506608,6.38689 -10.44797,9.17699 -21.113607,14.94637 -7.212484,3.90146 -14.908328,7.39677 -17.101875,7.76737 -2.193547,0.3706 -7.542419,1.80669 -11.886389,3.19132 -6.34841,2.02353 -10.64512,2.61408 -21.89813,3.00972 -21.6427,0.76092 -69.29342,-2.06341 -86,-5.09735 -8.50828,-1.54512 -18.50013,-3.04872 -27.5,-4.13828 -3.025,-0.36622 -6.625,-1.09592 -8,-1.62157 -1.375,-0.52565 -6.20864,-1.55998 -10.74142,-2.29851 -4.53278,-0.73854 -10.77466,-2.50255 -13.87084,-3.92002 -3.09619,-1.41748 -6.70615,-2.57724 -8.02215,-2.57724 -1.316,0 -3.28662,-0.45 -4.37916,-1 -1.09254,-0.55 -2.85015,-1.43115 -3.90581,-1.95812 -1.05566,-0.52697 -5.62914,-1.90532 -10.16329,-3.06299 -4.53416,-1.15767 -9.86162,-2.93014 -11.8388,-3.93883 -1.97719,-1.00868 -9.67213,-3.40555 -17.09988,-5.32638 -7.42775,-1.92083 -16.54072,-4.92672 -20.25106,-6.67977 -11.08214,-5.23606 -23.77006,-6.01131 -29.39926,-1.79634 -2.24806,1.68327 -17.48807,8.76243 -18.86376,8.76243 -0.76266,0 -2.19169,0.82008 -3.17561,1.82239 -4.29927,4.37963 -13.66583,8.99488 -14.7371,7.26152 -0.5216,-0.84396 0.0473,-1.45541 7.94814,-8.54234 2.75,-2.46671 5.46211,-4.49768 6.02691,-4.51325 0.5648,-0.0156 3.38566,-1.80065 6.26857,-3.96683 2.88291,-2.16617 6.2458,-4.25308 7.47309,-4.63756 2.7582,-0.86407 7.35087,-4.36998 6.89639,-5.2645 -0.93783,-1.84587 -2.74361,-3.32931 -5.55272,-4.56152 -1.71173,-0.75086 -5.36224,-2.37294 -8.11224,-3.60463 -4.85068,-2.17256 -19.1668,-6.99328 -20.76799,-6.99328 -0.43573,0 -3.66803,2.3625 -7.1829,5.25 -3.51487,2.8875 -9.64283,7.725 -13.61769,10.75 -3.97486,3.025 -8.62301,6.80385 -10.32922,8.39744 -3.46221,3.23368 -23.30865,14.58482 -25.51915,14.59563 -0.77933,0.004 -4.15433,1.49684 -7.5,3.31785 -10.1275,5.51226 -18.05595,8.43861 -35.58305,13.13353 -3.575,0.95763 -7.97777,2.37438 -9.78393,3.14834 -1.80616,0.77397 -4.00275,1.40721 -4.88131,1.40721 -0.87856,0 -5.47579,1.29805 -10.21607,2.88455 -8.5104,2.84831 -12.55913,3.62265 -35.11869,6.7166 -13.34194,1.82979 -40.36124,2.57415 -50.5,1.39124 z m 36,-13.52724 c 5.5,-0.84772 14.05,-2.17107 19,-2.94078 10.60588,-1.64918 23.42597,-4.85482 32.5,-8.12656 3.575,-1.28901 11.9,-3.95315 18.5,-5.92031 6.6,-1.96717 14.25,-4.39064 17,-5.3855 2.75,-0.99485 9.5,-3.26308 15,-5.0405 11.04938,-3.5708 20.13857,-7.84118 25.49249,-11.97714 1.92913,-1.49028 6.72563,-4.82173 10.6589,-7.40321 8.07477,-5.29967 18.96227,-15.52139 17.68877,-16.60711 -0.46209,-0.39395 -2.86516,-1.32558 -5.34016,-2.07029 -2.475,-0.7447 -5.0196,-1.74244 -5.65466,-2.21719 -0.63506,-0.47476 -4.03514,-1.68694 -7.55573,-2.69374 -3.5206,-1.0068 -7.726,-2.51447 -9.34534,-3.35039 -1.61935,-0.83591 -6.43396,-2.69023 -10.69914,-4.1207 -4.26518,-1.43048 -8.54018,-3.0293 -9.5,-3.55294 -0.95982,-0.52365 -4.22013,-1.70183 -7.24513,-2.6182 -3.025,-0.91636 -7.38013,-2.74037 -9.67807,-4.05335 -2.29794,-1.31298 -5.03114,-2.38724 -6.07377,-2.38724 -3.13333,0 -17.39023,-4.60373 -22.89339,-7.39256 -2.82987,-1.43409 -5.77067,-2.60744 -6.53511,-2.60744 -0.76444,0 -4.74909,-1.13663 -8.85477,-2.52584 -4.10569,-1.38922 -11.28989,-3.65117 -15.96489,-5.02656 -4.675,-1.3754 -9.85,-3.13042 -11.5,-3.90006 -7.72695,-3.60423 -12.07525,-5.29401 -26.5,-10.29814 -8.525,-2.95743 -18.01598,-5.78234 -21.09106,-6.27759 -3.07509,-0.49525 -6.90009,-1.40792 -8.5,-2.02814 -10.43347,-4.04467 -40.231,-4.53757 -57.90894,-0.95791 -5.25713,1.06453 -13.44383,3.80239 -19.6855,6.58337 -9.10896,4.05851 -11.8644,5.88003 -18.67586,12.34591 -9.16225,8.69739 -11.37112,13.01963 -13.07514,25.58496 -2.21719,16.34937 1.6535,30.78949 11.36909,42.41388 2.23707,2.67659 5.25213,6.40074 6.70012,8.2759 6.07967,7.87321 32.23455,22.77515 47.83132,27.25226 5.20522,1.49418 10.33114,3.18075 11.39094,3.74793 1.76357,0.94384 18.40545,3.83303 33.14503,5.7543 10.23723,1.3344 25.55673,1.13051 36,-0.47912 z m 481,-4.86943 c 4.4,-1.41114 8.83504,-2.57246 9.85565,-2.58071 1.020599,-0.008 3.192626,-1.14001 4.82672,-2.51501 1.634095,-1.375 3.530283,-2.5 4.21375,-2.5 0.683468,0 3.655215,-1.8 6.603881,-4 2.948666,-2.2 5.885583,-4 6.526481,-4 0.640898,0 4.342716,-2.6679 8.226263,-5.92866 3.883546,-3.26077 8.994835,-7.14945 11.358421,-8.64151 5.539375,-3.49686 7.188744,-5.4719 11.433524,-13.69114 6.211136,-12.02671 7.642171,-17.02137 7.752764,-27.059 0.178055,-16.1605 -4.446791,-24.01887 -19.69924,-33.47224 -11.217535,-6.95255 -23.626197,-10.69748 -40.098213,-12.10163 -7.700001,-0.65638 -15.575001,-1.39829 -17.500001,-1.64869 -3.53531,-0.45986 -23.55692,0.70132 -45.36707,2.63114 -10.5781,0.93597 -17.35405,2.1327 -32.63293,5.76345 -2.475,0.58814 -9,1.93171 -14.5,2.98573 -5.5,1.05401 -11.8007,2.60603 -14.00155,3.44895 -2.20085,0.84291 -6.92585,2.07386 -10.5,2.73544 -3.57415,0.66158 -7.6745,1.81646 -9.11189,2.56639 -2.64624,1.38062 -16.23436,5.79481 -20.95966,6.80888 -1.41521,0.30371 -4.11521,1.59743 -6,2.87493 -5.06692,3.43433 -13.58526,7.76609 -30.9269,15.727 -22.68655,10.41456 -24.97865,11.60604 -30.74403,15.98146 -2.88422,2.18887 -7.58681,5.16693 -10.45019,6.61792 -2.86338,1.45098 -6.96785,3.80399 -9.12104,5.22891 -3.85898,2.55375 -3.88111,2.60372 -1.54982,3.49887 1.3008,0.49947 4.61508,1.97139 7.36508,3.27095 6.74613,3.18799 16.02415,6.37006 21.51341,7.37842 2.48237,0.45601 6.73639,2.01108 9.45338,3.45571 2.71698,1.44464 5.50904,2.40824 6.20456,2.14134 0.69553,-0.2669 1.53057,-0.0549 1.85564,0.47106 0.32508,0.52597 2.03936,0.95632 3.80952,0.95632 1.77016,0 4.10611,0.61706 5.19098,1.37125 1.86375,1.29564 12.2422,4.03273 24.47251,6.45408 8.60528,1.70367 21.41782,4.7003 34.5,8.06896 6.6,1.6995 13.61598,3.09353 15.59107,3.09786 1.97509,0.004 5.80009,0.67727 8.5,1.49545 2.69991,0.81819 9.85893,1.96279 15.90893,2.54357 6.05,0.58078 13.925,1.45298 17.5,1.93822 3.575,0.48524 9.65,0.66622 13.5,0.40218 3.85,-0.26404 9.025,-0.0251 11.5,0.53102 2.475,0.55609 11.925,0.84183 21,0.63496 14.32399,-0.32652 17.55504,-0.71449 24.5,-2.94183 z m -359,-430.63658 c -2.75,-0.4661 -6.575,-1.1373 -8.5,-1.49155 -5.32846,-0.9806 -19.72791,-6.43585 -26.9121,-10.19569 -3.52666,-1.84567 -8.70166,-4.33448 -11.5,-5.53068 -2.79834,-1.19621 -6.6132,-3.20234 -8.47745,-4.45807 -1.86425,-1.25573 -4.63422,-2.28315 -6.1555,-2.28315 -1.52127,0 -4.49597,-0.8671 -6.61045,-1.92688 -2.11447,-1.05979 -16.2195,-8.04814 -31.3445,-15.52968 -15.125,-7.48153 -31.1,-16.07579 -35.5,-19.09835 -17.97354,-12.34683 -22.04342,-15.04622 -25.93039,-17.1986 -2.23829,-1.23942 -5.86961,-3.74852 -8.06961,-5.57577 -2.2,-1.82725 -5.35,-4.16467 -7,-5.19427 -6.13139,-3.82598 -15.51782,-12.73506 -20.80454,-19.74653 -2.99829,-3.97645 -7.97478,-10.05207 -11.05886,-13.50137 -3.08408,-3.4493 -6.29412,-7.59938 -7.13342,-9.22241 -0.8393,-1.62302 -2.58451,-4.51075 -3.87825,-6.41718 -1.87781,-2.76711 -2.55382,-5.64682 -3.35166,-14.27759 -2.17639,-23.54336 -1.32366,-28.19334 6.80028,-37.08222 2.82515,-3.09117 5.86525,-6.76979 6.75577,-8.17473 1.86145,-2.93673 5.10004,-6.05442 6.28921,-6.05442 0.44688,0 2.11876,-1.2375 3.71528,-2.75 7.04405,-6.67335 10.44122,-9.02233 19.89622,-13.75723 2.87651,-1.44051 5.51358,-3.07793 5.86016,-3.6387 2.52825,-4.09079 40.44665,-15.54184 60.68942,-18.32771 2.62879,-0.36178 8.47879,-1.92828 13,-3.4811 4.52122,-1.55283 9.79539,-3.12182 11.72039,-3.48666 5.59177,-1.05978 28.37068,-8.93261 29.82143,-10.30686 0.72679,-0.68845 1.85179,-1.25505 2.5,-1.2591 1.08467,-0.007 4.62759,-1.77671 21.47689,-10.72922 3.35032,-1.78012 8.02878,-4.60736 10.39659,-6.28276 2.3678,-1.67539 5.43009,-3.79271 6.80509,-4.70514 3.7453,-2.48533 15,-14.10523 15,-15.48674 0,-0.66245 1.55306,-2.79843 3.45125,-4.74662 3.00528,-3.08445 5.07063,-6.33462 9.26518,-14.58031 0.5489,-1.07901 1.72219,-3.35579 2.60733,-5.05951 3.24846,-6.25266 9.7712,-26.223934 13.35895,-40.902339 1.37175,-5.612188 3.00501,-18.160878 3.70938,-28.5 0.42454,-6.231703 0.68538,-6.880599 1.60791,-4 1.20347,3.757849 1.18164,24.769709 -0.0265,25.516391 -0.56459,0.348933 -0.93143,1.162991 -0.81522,1.809017 0.63915,3.553004 -3.29884,20.980369 -7.27038,32.174591 -0.58539,1.65 -1.4828,4.71371 -1.99424,6.80825 -1.22081,4.99967 -8.00708,18.42694 -12.62806,24.9858 -9.5555,13.56274 -19.04804,23.43907 -28.26558,29.40835 -3.025,1.959 -6.625,4.56271 -8,5.78604 -2.80739,2.49772 -21.2881,12.51156 -23.09028,12.51156 -0.64017,0 -4.36925,1.54174 -8.28683,3.4261 -3.91759,1.88435 -8.88664,4.14325 -11.04234,5.01977 -4.93913,2.00829 -38.07712,10.25588 -46.08055,11.46882 -8.20494,1.24347 -29.28064,8.84044 -39,14.05798 -4.4,2.362 -11.34444,6.04665 -15.4321,8.18811 -4.08766,2.14145 -9.71266,6.03526 -12.5,8.65291 -2.78734,2.61765 -6.80183,6.06925 -8.92108,7.67022 -2.11925,1.60098 -6.65571,6.12424 -10.08102,10.05168 -5.93826,6.80877 -6.30791,7.544 -7.94994,15.81214 -0.94716,4.76923 -1.41558,9.16732 -1.04092,9.77352 0.37465,0.6062 1.01794,4.16994 1.42953,7.91943 0.87725,7.99161 3.75867,14.52082 9.47024,21.45932 2.26372,2.75 5.35625,6.93802 6.87229,9.30671 3.16152,4.93963 10.37923,12.30915 15.18714,15.5066 1.80844,1.20268 5.69057,4.26205 8.62697,6.79861 6.71748,5.80278 19.83319,14.80154 27.48306,18.85626 7.07255,3.74871 10.40189,5.76607 20.96725,12.70474 4.46128,2.9299 8.44181,5.32708 8.84563,5.32708 0.40381,0 2.07166,0.95235 3.70633,2.11634 2.73756,1.94931 7.41825,4.09288 26.25233,12.02251 3.80365,1.60143 9.53606,4.70032 12.7387,6.88642 3.20263,2.1861 6.30642,3.97473 6.89729,3.97473 0.59088,0 4.07651,1.44793 7.74585,3.21762 3.66934,1.76969 9.37848,4.18873 12.68699,5.37564 6.79107,2.43626 17.01938,6.64376 23.08119,9.49463 2.23614,1.05166 5.03581,1.91211 6.22148,1.91211 1.18567,0 4.69959,1.125 7.80871,2.5 3.10912,1.375 6.6856,2.5 7.94774,2.5 1.26215,0 5.13674,0.72807 8.61021,1.61793 6.21544,1.59232 17.4907,1.36857 18.79017,-0.37288 0.70402,-0.94347 4.09291,-3.08312 6.05596,-3.82356 0.825,-0.31119 2.175,-0.9844 3,-1.49603 0.825,-0.51163 2.4,-1.33845 3.5,-1.83738 1.89209,-0.8582 8.06359,-7.34473 14.35528,-15.08808 1.56412,-1.925 3.14305,-4.72925 3.50874,-6.23166 0.36568,-1.50241 2.00838,-4.26182 3.65043,-6.13201 1.64205,-1.8702 2.98555,-3.84873 2.98555,-4.39673 0,-1.21068 -8.32717,-7.61981 -16.5,-12.69947 -3.3,-2.05105 -9.825,-7.45446 -14.5,-12.00758 -4.675,-4.55311 -10.1183,-9.34808 -12.09622,-10.65547 -3.65169,-2.41375 -10.69853,-10.02011 -13.68146,-14.76778 -0.90168,-1.43512 -4.73946,-6.09261 -8.52841,-10.34998 -6.81561,-7.65822 -7.79103,-9.50729 -14.36235,-27.22626 -1.82233,-4.91373 -3.62744,-25.61924 -2.70547,-31.03306 0.37465,-2.2 0.7976,-5.575 0.93987,-7.5 0.38975,-5.27343 2.01251,-11.78716 3.33288,-13.37811 0.64574,-0.77807 1.94567,-3.00099 2.88873,-4.93982 0.94307,-1.93883 5.88497,-8.22777 10.982,-13.97542 10.10648,-11.39652 15.29879,-14.77167 28.23043,-18.35059 8.09988,-2.2417 33.49329,-2.49681 42,-0.42195 6.14683,1.49926 14.73652,5.58464 19.94428,9.48578 1.89435,1.41906 3.94182,2.58011 4.54992,2.58011 1.56869,0 13.19398,8.47751 18.34123,13.37497 2.38448,2.26877 5.67545,6.75609 7.31325,9.97182 2.68717,5.2761 3.06495,7.22826 3.87035,20 0.54414,8.62877 0.52876,15.71454 -0.0394,18.15321 -0.51255,2.2 -0.94265,5.50514 -0.95577,7.34476 -0.0341,4.77615 -9.12755,35.18934 -11.36375,38.00612 -0.58985,0.74299 -1.17065,2.01996 -1.29067,2.83771 -0.12002,0.81776 -0.86503,2.23486 -1.65557,3.14912 -0.79054,0.91426 -3.14857,5.21454 -5.24006,9.55617 -2.09148,4.34163 -5.3037,10.12435 -7.13826,12.85049 -1.83455,2.72613 -3.33555,5.21346 -3.33555,5.52738 0,0.31392 -0.6307,1.2812 -1.40156,2.14951 -1.14499,1.28972 -12.59844,22.7843 -12.59844,23.64335 0,0.13906 2.925,2.5515 6.5,5.36098 6.02171,4.73228 7.69554,7.21749 5.69417,8.45441 -0.9422,0.58231 -3.26531,-0.65187 -9.65623,-5.13 -2.55101,-1.7875 -4.95314,-3.24361 -5.33807,-3.2358 -0.38493,0.008 -2.39141,2.1453 -4.45885,4.75 -10.78416,13.58656 -14.63009,18.1354 -18.7998,22.2358 -10.97198,10.78961 -18.59554,15.31129 -28.94122,17.1656 -7.7293,1.38537 -22.57017,1.79859 -28.5,0.79354 z m 77.27397,-62.22594 c 1.74147,-1.79673 5.71486,-8.20923 8.82977,-14.25 3.1149,-6.04076 6.44545,-12.1082 7.40122,-13.4832 3.47253,-4.9957 10.64443,-22.28262 12.86109,-31 6.30521,-24.79623 7.13395,-30.07363 7.13395,-45.42906 0,-11.20734 -0.41383,-16.42919 -1.5712,-19.82588 -2.03299,-5.9665 -12.10071,-17.01168 -18.27315,-20.04726 -2.56061,-1.2593 -6.91052,-3.49735 -9.66647,-4.97345 -7.78341,-4.16884 -19.35139,-6.72435 -30.43904,-6.72435 -16.10985,0 -27.97383,4.44587 -38.36902,14.37827 -5.18728,4.95635 -6.82097,7.84647 -13.32727,23.57702 -3.66967,8.87234 -1.24839,32.94268 4.41188,43.85908 4.13509,7.97494 7.69978,13.8622 10.70852,17.68563 1.73122,2.2 3.741,5.47134 4.46618,7.26965 0.76972,1.90878 6.75402,8.36009 14.37797,15.5 15.93998,14.92798 29.12264,27.96441 33.35028,32.98035 1.73836,2.0625 3.56078,3.75 4.04982,3.75 0.48904,0 2.314,-1.47006 4.05547,-3.2668 z"
       id="path2" />
  </g>
</svg>
